# xmcd
#
# Track frame offsets: 
#        150
#        12595
#        23540
#        36267
#        48197
#        60101
#        71970
#        84826
#        97502
#        109241
#        120666
#        135218
#        149971
#        163059
#        175623
#        190055
#        202317
#        214102
#        225539
#        238380
#
# Disc length: 3331 seconds
#
# Revision: 0
# Processed by: cddbd v1.5.2PL0 Copyright (c) Steve Scherf et al.
# Submitted via: ExactAudioCopy v1.0b3
#
DISCID=110d0114
DTITLE=Various Artist - Western Swing: The Absolute Essential 3CD Collection
DYEAR=2012
DGENRE=Swing
TTITLE0=Bob Wills and His Texas Playboys - Steel Guitar Rag
TTITLE1=Light Crust Doughboys - Blue Guitars
TTITLE2=Milton Brown and His Musical Brownies - Down By The O-H-I-O
TTITLE3=Ted Daffan's Texans - Blue Steel Blues
TTITLE4=Bill Boyd and His Cowboy Ramblers - Boyd's Blues
TTITLE5=Spade Cooley - I've Taken All I'm Gonna Take From You
TTITLE6=Spade Cooley - Steel Guitar Stomp
TTITLE7=Bob Wills and His Texas Playboys - Stay A Little Longer
TTITLE8=Al Dexter - Honey Do You Think It's Wrong
TTITLE9=Tune Wranglers - Buster's Crawdad Song
TTITLE10=Milton Brown - St Louis Blues
TTITLE11=Cliff Bruner's Texas Wanderers - Corrine Corrina
TTITLE12=Tex Williams and His Western Caravan - Smoke Smoke Smoke (That 
TTITLE12=Cigarette)
TTITLE13=Light Crust Doughboys - Mean Mean Mama (From Meana)
TTITLE14=Milton Brown - Chinese Honeymoon
TTITLE15=Sons Of The West - Oh Susannah
TTITLE16=Spade Cooley - Crazy Cause I Love You
TTITLE17=Bob Wills and His Texas Playboys - New Spanish Two Step
TTITLE18=Bill and Boyd - She's Doggin' Me
TTITLE19=Tune Wranglers - Texas Sand
EXTD=
EXTT0=
EXTT1=
EXTT2=
EXTT3=
EXTT4=
EXTT5=
EXTT6=
EXTT7=
EXTT8=
EXTT9=
EXTT10=
EXTT11=
EXTT12=
EXTT13=
EXTT14=
EXTT15=
EXTT16=
EXTT17=
EXTT18=
EXTT19=
PLAYORDER=
